<svg version="1.2" xmlns="http://www.w3.org/2000/svg" viewBox="0 0 6000 2000" width="250" height="83"><defs><linearGradient id="P" gradientUnits="userSpaceOnUse"/><linearGradient id="g1" x2="1" href="#P" gradientTransform="matrix(-483.741,1160.081,-813.821,-339.355,2155.399,798.032)"><stop stop-color="#ff681a"/><stop offset="1" stop-color="#fa6e26"/></linearGradient><linearGradient id="g2" x2="1" href="#P" gradientTransform="matrix(21.175,144.19,-83.328,12.237,1748.067,334.369)"><stop stop-color="#ff681a"/><stop offset="1" stop-color="#923809"/></linearGradient><linearGradient id="g3" x2="1" href="#P" gradientTransform="matrix(410.799,-908.737,364.824,164.92,-113,1247.952)"><stop stop-color="#f99e6e" stop-opacity="1"/><stop offset="1" stop-color="#f9a071" stop-opacity="0"/></linearGradient><linearGradient id="g4" x2="1" href="#P" gradientTransform="matrix(232.317,-86.157,26.571,71.647,1544.666,497.014)"><stop stop-color="#fba071" stop-opacity="1"/><stop offset="1" stop-color="#f9a071" stop-opacity="0"/></linearGradient><linearGradient id="g5" x2="1" href="#P" gradientTransform="matrix(0,-155.08,95.696,0,1305.591,742.522)"><stop stop-color="#ff681a"/><stop offset="1" stop-color="#923809"/></linearGradient><linearGradient id="g6" x2="1" href="#P" gradientTransform="matrix(963.408,-876.109,325.043,357.432,-340.153,991.422)"><stop stop-color="#fc9863" stop-opacity="1"/><stop offset=".99" stop-color="#f9a071" stop-opacity=".01"/><stop offset="1" stop-color="#f9a071" stop-opacity="0"/></linearGradient><linearGradient id="g7" x2="1" href="#P" gradientTransform="matrix(-7.78,462.915,-210.182,-3.533,1869.929,1010.241)"><stop stop-color="#1fbdc0"/><stop offset="1" stop-color="#30eff3"/></linearGradient><linearGradient id="g8" x2="1" href="#P" gradientTransform="matrix(-504.516,477.349,-125.465,-132.606,1224.614,1062.097)"><stop stop-color="#1fbdc0"/><stop offset="1" stop-color="#30eff3"/></linearGradient></defs><style>.a{fill:url(#g1)}.b{fill:url(#g2)}.c{fill:url(#g3)}.d{fill:url(#g4)}.e{fill:url(#g5)}.f{fill:url(#g6)}.g{fill:url(#g7)}.h{opacity:.3;mix-blend-mode:color-dodge;fill:#a3f8fa}.i{fill:url(#g8)}.j{fill:#4f5050}</style><path class="a" d="m1816.9 539.6c0 46.6-69.6 78.9-143.7 72.9l-84.8-6.6-74 212.6c-7.3 21-27.1 35.1-49.4 35.5l-29.7 0.2-2.9-252.8c-392.1 92.3-665.4 482.7-686.5 765.1-23.3 310.5 293 310.5 293 310.5-272.7 255.4-763.1 20.4-438.1-540.9 217.3-375.2 559.9-515 749.5-562.4h0.1c0.1 0 0.2 0 0.3-0.2 3.2-0.8 5.2-4 4.5-7.3-0.7-3.3-3.8-5.4-7.2-4.9h-0.3c-0.1 0-0.2 0-0.3 0.2-135.2 24.3-267.1 68.4-392.6 126.4 122.6-63.6 253-114.2 388.6-145.4 0.2 0 0.5-0.1 0.6-0.1 2.8-0.6 4.7-3.2 4.4-6.1-0.4-3.2-3.1-5.4-6.3-5-0.2 0-0.4 0.1-0.6 0.1-408.5 61.5-878.6 293.8-1025.3 595.8-165.6 340.9 72.7 578.3 72.7 578.3-229.2-148.6-371.4-600.1 145.1-940.6 373-245.8 665.6-267.3 867-279.8l30.2 0.6-3.1-268 29.8-0.4c22.2-0.2 42.2 13.5 50.1 34.4l82.8 221.4 82.4-6.5c5.8-0.4 11.6-0.7 17.3-0.7 67.3 0 126.4 30.8 126.4 73.7z"/><path class="b" d="m1590.8 473.1l-82.8-221.4c-7.9-20.9-27.9-34.6-50.1-34.4l-29.8 0.4 3.1 268c0 0 73-9.3 159.6-12.6z"/><path class="c" d="m745.9 1366.5c21.1-282.4 294.4-672.8 686.5-765.1 0 0-529.5 59.8-769.4 634.3-93 222.7-27.4 415.2 189 538.1 65.5-12.5 130.8-44.2 186.9-96.8 0 0-316.3 0-293-310.5z"/><path class="d" d="m1816.9 539.6c0 46.6-69.6 78.9-143.7 72.9l-84.8-6.6c-45.5-0.4-117.4-3-144.8-4-0.6 0-1.2-0.2-1.7-0.2-3-0.3-6.1-0.4-9.5-0.3 90-5 383.2-29.3 323.2-125 36.1 12.5 61.3 35.3 61.3 63.2z"/><path class="e" d="m1432.4 601.4l2.9 252.8 29.7-0.2c22.3-0.4 42.1-14.5 49.4-35.5l74-212.6c-57.1-0.6-156-4.5-156-4.5z"/><path class="f" d="m388.9 1705.5c0 0-238.3-237.4-72.7-578.3 146.7-302 616.8-534.3 1025.3-595.8 0.2 0 0.4-0.1 0.6-0.1 0 0-480.9 38.5-783.4 275.2-302.5 236.7-326.5 409.2-322.1 615.2 2.2 103.1 75.3 204.9 147.8 280.7 1.5 1 3 2.1 4.5 3.1z"/><path class="g" d="m1098.9 832.6c0 0-289.2 223.5-295 533.9-5.8 310.5 272.8 296 356.9 185.8 0 0-240.5-12.1-226.3-287.3 14.1-275.3 164.4-432.4 164.4-432.4z"/><path class="h" d="m1086.7 846.8c-61.9 73.9-334.1 426.1-192.3 745.5 87.5 59.8 214.3 28.3 266.4-40 0 0-240.5-12.1-226.3-287.3 11.7-227.4 116.2-374.1 152.2-418.2z"/><path class="i" d="m144.6 1288.2c0 0-22.6-611.6 1042.3-822.3 0 0-617 55.6-864.7 343.5-232.1 269.9-177.6 478.8-177.6 478.8z"/><path class="h" d="m144.6 1288.2c0 0-17.3-469.4 694.5-727.4-209.6 53.2-368.5 132.9-488.1 217.8-10 10-19.7 20.2-28.8 30.8-232.1 269.9-177.6 478.8-177.6 478.8z"/><path  d="m1208.2 983.2v80.4h135.7v-80.4q0-14.6-9.1-18.1-4.5-2-22.6-2l-16.1-36.2h170.8l-16 36.2q-18.1 0-22.6 2-9.1 3.5-9.1 18.1v215.5q0 13.6 10.1 17.1 4 1.5 22.1 1.5l14.5 37.2h-169.3l15.1-37.2q19.1 0 22.6-1 9.6-3 9.6-17.6v-80.4l-135.7 0.6v79.8q0 14.6 9.5 17.6 3.6 1 22.7 1l14.5 37.2h-169.3l15.1-37.2q19.1 0 22.6-1 9.5-3 9.5-17.6v-215.5q0-14.6-9-18.1-4.5-2-22.6-2l-16.1-36.2h170.8l-16 36.2q-18.1 0-22.7 2-9 3.5-9 18.1zm501.9 194.4l38.7 6.6q-34.2 41.7-65.8 60.2-36.7 21.2-85.9 21.2-47.3 0-80.4-33.7-33.2-33.7-33.2-80.9 0-32.1 16.1-59.3 16.1-27.1 44.7-42.2l38.2-20.1q24.6-13 52.7-13 43.2 0 78.4 32.1 6 5.5 14.6 11.1l3.5 8.5-168.3 89.9q8 23.7 27.6 38.7 19.6 15.1 44.2 15.1 37.7 0 74.9-34.2zm-153.2-53.7q17.6-6.1 91.4-40.2-13.6-13.6-51.2-13.6-18.6 0-30.2 18.1-9 15.1-10 35.7zm463.7 74.3l17.6 30.2-113.1 36.1v-28.1q-39.7 21.1-61.8 21.1-27.1 0-53.7-18.6-14.6-10.5-21.6-22.1-4.1-6.5-12.6-28.1 0-23.1 61.8-52.8 44.7-22.1 83.4-32.6-10-29.7-49.7-29.7-18.1 0-70.9 20.1l-18.1-27.1q55.3-27.6 61.3-30.6 35.7-14.6 66.3-14.6 43.8 0 67.4 23.6 24.1 23.6 24.1 67.8v95.5q0 2 0.5 2 5.5-6.5 19.1-12.1zm-95.5-5.5l-0.5-54.8q-69.8 15.6-69.8 31.7 0 11 15.1 21.6 15 10.5 26.6 10.5 11 0 28.6-9zm263.8-145.7l70.8-36.2q39.7 32.2 39.7 83.4 0 37.7-21.1 73.9-20.6 36.2-53.2 55.2-40.7 24.2-92 39.2 0-14-30.1-88.9-28.7-72.8-39.2-88.4-6.5-10.1-15.6-10.1-7 0-21.1 3.1l-11-28.7 103.5-33.6q36.6 80.3 78.8 173.8 27.2-30.7 27.2-69.8 0-42.2-36.7-72.9zm364.7 130.6l38.7 6.6q-34.2 41.7-65.8 60.2-36.7 21.2-85.9 21.2-47.2 0-80.4-33.7-33.2-33.7-33.2-80.9 0-32.1 16.1-59.3 16.1-27.1 44.7-42.2l38.2-20.1q24.6-13 52.8-13 43.2 0 78.3 32.1 6.1 5.5 14.6 11.1l3.5 8.5-168.3 89.9q8.1 23.7 27.7 38.7 19.5 15.1 44.2 15.1 37.6 0 74.8-34.2zm-153.2-53.7q17.6-6.1 91.4-40.2-13.5-13.6-51.2-13.6-18.6 0-30.2 18.1-9 15.1-10 35.7zm513.9 94.9l14.6 35.7h-169.3l15.1-35.7q19.1 0 22.1-1 9.5-2.5 10-16.6 0.5-24.6 0.5-65.3 0-58.2-55.2-58.2-12.1 0-24.1 3.5v172.8l-122.6 0.5 15-35.7q19.1 0 22.1-1 10.1-2.5 10.1-16.6v-108.5q0-18.6 0-22.6 0-1.5-0.5-2-0.5 0-4.5 3.5-8.6 7.1-18.6 9.1l-16.6-28.7 115.6-36.6v25.1q35.6-15.6 63.8-15.6 55.2 0 76.3 35.7 15.1 26.1 15.1 81.9 0 9.5-0.5 29.6-0.5 19.6-0.5 29.1 0 14.1 10 16.6 3 1 22.1 1zm515.5-87.9q0 47.2-29.6 76.4-18.1 18.1-69.9 45.2-25.1 13.1-52.2 13.1-47.3 0-80.4-33.7-33.2-33.7-33.2-80.9 0-46.7 29.2-76.4 17.6-18 69.3-45.2 24.6-13 53.3-13 46.7 0 79.8 34.1 33.7 33.7 33.7 80.4zm-75.4 20.1q0-38.2-27.6-60.3-25.1-20.6-64.3-20.6-12.6 0-18.6 24.6-4 16.6-4 36.2 0 32.7 22.1 56.8 22.1 24.1 54.3 24.1 38.1 0 38.1-60.8zm416-203l-72.3 37.7q-23.1-28.1-38.2-37.2-19.1-11-51.8-11-25.6 0-34.1 27.6-4 14.6-4 48.7h118l9.6 25.7-54.8 29.6h-72.8v129.1q0 14.6 9.5 17.6 3.5 1 22.6 1l14.6 37.7h-169.3l15.1-37.7q19 0 22.6-1 9.5-3 9.5-17.6v-129.1h-30.6l-9.1-26.6 39.7-21.1q0-33.2 16.1-61.3 16.1-28.1 44.7-43.7l38.2-20.6q26.1-14.1 52.7-14.1 44.7 0 70.9 15.6 20.1 12.1 53.2 50.7zm279.9 35.2v80.4h135.6v-80.4q0-14.6-9-18.1-4.6-2-22.6-2l-16.1-36.2h170.8l-16.1 36.2q-18.1 0-22.6 2-9 3.5-9 18.1v215.5q0 13.6 10 17.1 4 1.5 22.1 1.5l14.6 37.2h-169.3l15.1-37.2q19 0 22.6-1 9.5-3 9.5-17.6v-80.4l-135.6 0.6v79.8q0 14.6 9.5 17.6 3.5 1 22.6 1l14.6 37.2h-169.3l15-37.2q19.1 0 22.7-1 9.5-3 9.5-17.6v-215.5q0-14.6-9-18.1-4.6-2-22.7-2l-16-36.2h170.8l-16.1 36.2q-18.1 0-22.6 2-9 3.5-9 18.1zm541.5 147.7q0 47.2-29.6 76.4-18.1 18.1-69.8 45.2-25.2 13.1-52.3 13.1-47.2 0-80.4-33.7-33.1-33.7-33.1-80.9 0-46.7 29.1-76.4 17.6-18 69.3-45.2 24.7-13 53.3-13 46.7 0 79.9 34.1 33.6 33.7 33.6 80.4zm-75.3 20.1q0-38.2-27.7-60.3-25.1-20.6-64.3-20.6-12.5 0-18.5 24.6-4.1 16.6-4.1 36.2 0 32.7 22.1 56.8 22.1 24.1 54.3 24.1 38.2 0 38.2-60.8zm250.2 66.3l14.5 37.2h-169.3l15.1-37.2q19.1 0 22.6-1 9.6-3 9.6-17.6v-238.1q0-20.1 0-25.1 0-2-0.5-2-0.5 0-5.6 4-8 6.5-17.6 8.5l-16.5-29.6 115.5-38.2v320.5q0 14.6 9.6 17.6 3.5 1 22.6 1zm158.2-294.4q0 21.6-16 36.2-16.1 14.1-37.7 14.1-21.1 0-37.2-14.6-16.1-14.6-16.1-35.7 0-21.1 16.1-35.2 16.1-14.5 37.2-14.5 21.6 0 37.7 14.5 16 14.1 16 35.2zm28.7 294.4l14.5 37.2h-169.3l15.1-37.2q18.6 0 22.6-1.5 9.6-3 9.6-17.6v-109q0-20.1 0-29.1 0-2-0.5-2-0.6 0-4.6 3.5-8.5 7-19.1 9.5l-15.5-30.1 115-38.7v195.9q0 14.6 9.6 17.6 4 1.5 22.6 1.5zm307.9-16.6l17.6 31.2-113 37.2v-17.1q-34.2 17.1-64.3 17.1-47.8 0-80.9-34.2-32.7-34.7-32.7-82.9 0-32.6 16.1-60.3 16.1-28.1 44.7-43.2l38.2-20.1q25.6-13.5 52.8-13.5 12.5 0 26.1 3v-82.4q0-2-0.5-2-0.5 0-5.5 4-8.1 6.5-18.1 8.5l-15.6-29.6 115-38.2v333.6q0.5 0.5 1 0.5 1-1 4.1-3 7-5.5 15-8.6zm-95.4 2.1v-102.5q-27.7-30.7-64.3-30.7-38.2 0-38.2 62.3 0 33.2 21.6 57.8 21.6 24.6 54.3 24.6 10.5 0 26.6-11.5zm378.3-4.6l17.6 30.2-113.1 36.1v-28.1q-39.7 21.1-61.8 21.1-27.1 0-53.7-18.6-14.6-10.5-21.6-22.1-4-6.5-12.6-28.1 0-23.1 61.8-52.8 44.7-22.1 83.4-32.6-10-29.7-49.7-29.7-18.1 0-70.9 20.1l-18.1-27.1q55.3-27.6 61.3-30.6 35.7-14.6 66.4-14.6 43.7 0 67.3 23.6 24.1 23.6 24.1 67.8v95.5q0 2 0.5 2 5.5-6.5 19.1-12.1zm-95.5-5.5l-0.5-54.8q-69.8 15.6-69.8 31.7 0 11 15.1 21.6 15 10.5 26.6 10.5 11 0 28.6-9zm142.7 202q-25.6 0-36.7-8.6-10.5-9-18.6-35.1l65.9-54.3q-2.1 7.5-2.1 14.1 0 17 11.6 17 2 0 51.2-74.3-8.5-25.1-40.1-101-10.6-26.6-33.2-77.9-1.5-2.5-3.5-2.5-1.5 0-15.6 5.6-14.1 5-17.1 5.5l-11-31.2 107.5-35.1q40.7 92.9 65.3 151.7 65.8-104 65.8-107.5 0-4.5-23.6-3l-11.1-32.2q64.9-8 66.4-8 34.6 0 34.6 26.1 0 15.6-8.5 28.6l-176.9 275.3q-30.1 46.8-70.3 46.8z"/><path class="j" d="m1488.5 1559.6v-132.4q-44.6-0.2-44.6-0.2 0 0-12.8 4.3l-1.6-5.1 20.5-15.2h110.8q0 0 12-3l1.6 5.4-22.7 13.8h-36.5v132.4q0 11.5 4.2 14.7 3.5 2.7 15 2.7l2.9 8h-71l3-8q11.4 0 15.2-2.9 4-3 4-14.5zm196.7 0v-38.9q0-41.7-35.8-41.7-9.3 0-19.7 4.3v76.3q0 11.5 4.3 14.7 3.4 2.7 14.9 2.7l2.9 8h-71l3-8q11.5 0 15.2-2.9 4-3 4-14.5v-136.4q0-15.2 0.3-11.2-0.6-7.7-4-7.7-0.6 0-12.3 2.4l-2.7-5.3 45.4-16.3v89.7q24.3-13.9 40-13.9 42.2 0 42.2 48v50.7q0 11.5 4.3 14.7 3.4 2.7 14.9 2.7l3 8h-71l2.9-8q11.5 0 15.2-2.9 4-3 4-14.5zm178.8-3.2q-25 34.2-67.2 34.2-23.5 0-39-18.7-14.7-17.9-14.7-41.6 0-16.6 7.5-31 7.7-14.4 21.6-22.4l20.3-11.7q12-7 24.6-7 19.7 0 34.4 14.4 2.1 2.2 2.1 2.2 1.6 0 4-2.2l2.4 6.4-88.8 52.1q3.4 17.3 16 29.3 12.8 12.1 29.9 12.1 22.7 0 41.1-18.2l2.6 1.3q0.3 0.6 3.2 0.8zm-93.9-32l58.7-33.6q-13.1-14.4-32-14.4-14.2 0-21.4 14.9-5.6 11.5-5.6 27.2 0 3.8 0.3 5.9zm327.2-72.9q0-16.5-18.9-22.4-11-3.5-32.3-3.5h-8v64.9q32.5-9.1 49.6-21.1 9.6-6.7 9.6-17.9zm-52 47.3q-4 0-7.2 0.8v61.9q0 8.6 8.5 9.1 4.3 0.3 21.4 0.3h15.7q12.3 0 19.2-7.5 7-7.8 7-20 0-44.6-64.6-44.6zm-56.1 86.7l3-8.5q11.2 0.3 14.7-2.4 4.5-3.5 4.5-15v-123.3q0-11.2-4-14.7-4-3.7-15.2-3.4l-3-7.2h91.3q17.1 0 28.6 5.3 14.9 6.9 14.9 22.2 0 14.4-14.9 26.4-8 6.4-27.5 16.5 23.2 2.7 37.6 13.4 17.1 13.1 17.1 34.7 0 26.4-24.3 42.2-21.1 13.6-48.6 13.6-12.2 0-37.1 0-24.8 0.2-37.1 0.2zm282.2-29.1q-25.1 34.2-67.3 34.2-23.5 0-39-18.7-14.6-17.9-14.6-41.6 0-16.6 7.4-31 7.8-14.4 21.7-22.4l20.2-11.7q12.1-7 24.6-7 19.7 0 34.4 14.4 2.2 2.2 2.2 2.2 1.6 0 4-2.2l2.4 6.4-88.9 52.1q3.5 17.3 16 29.3 12.8 12.1 29.9 12.1 22.7 0 41.1-18.2l2.7 1.3q0.2 0.6 3.2 0.8zm-94-32l58.7-33.6q-13-14.4-32-14.4-14.1 0-21.3 14.9-5.7 11.5-5.7 27.2 0 3.8 0.3 5.9zm209 17.4q0 15.4-12 25.6-3.5 2.9-25.6 15.7-9.6 5.6-21.1 5.6-11.2 0-23.2-6.9-10.2-6.7-20.3-13.6l26.7-15q8.5 5.9 17.3 11.8 9.9 5.6 19.8 5.6 7.7 0 10.1-5.1 1.6-3.2 1.6-12 0-10.7-10.9-17.1-5.9-3.5-20.6-7.7-34.1-9.9-34.1-33.4 0-13.6 14.6-22.1 9.1-5.4 17.9-10.7 9.1-4.6 19.5-4.6 20 0 32 11.8l-25.6 14.9q-14.7-12.5-23.7-12.5-8 0-8 11.5 0 13.8 17 21.9 15.8 6.1 31.5 12.2 17.1 8.6 17.1 24.1zm137.5 8l4.3 4q-23.3 34.7-57.7 34.7-23.2 0-36-19.5-11-16.6-11.5-41.1 0-0.3 0-49.1h-28.6l-1.6-5.6q15.2-5.9 23-13.7 8-8 14.9-23.2l19-11.7v36h64.8l1.6 5.1-22.6 13.1h-43.8v23.7q0 9.6 0 13.6 0.5 21.9 9.6 36.6 11.2 17.6 31.5 17.6 12.5 0 33.1-20.5zm304 17.8q17.6-15.4 27.2-39.7 9.1-23 9.1-47.8 0-36.6-18.7-59.5l26.2-15q18.9 23.2 18.9 61.4 0 28.3-10.6 54.7-11.8 28.6-32.1 45.4-17.3 14.4-45.6 22.4-0.3-10.6-19.5-64.8-21.9 47.5-75.3 65.1-0.2-7.7-22.4-73.9-21.1-62.8-28-79.3-7-16.8-17.9-17.1l-2.9-8h71l-3 8q-19.7-0.3-19.7 9.6 0 2.7 22.1 64.1 24.1 66.2 26.5 74.4 34.4-30.4 35.7-83.5l-16.5-47.2q-5.9-17.1-18.2-17.4l-2.9-8h71l-2.9 8q-19.8-0.3-19.8 9.6 0 2.7 22.2 64.1 23.7 66.4 26.1 74.4zm194.9 1.1l2.9 5.6-43.8 15.8v-19q-9.3 5.6-18.7 11.2-12 6.2-20.8 6.2-12.3 0-24.3-9.4-9.3-7.2-14.1-21.6-1.6-4.5-1.6-4.5 0-12 33.4-28.1 26.1-12.5 45.1-16.8-4.3-29.1-34.7-29.1-11.8 0-34.7 10.2l-3.2-5.4q24-13.6 28-15.4 16.3-7.5 30.4-7.5 42.2 0 42.2 48v57.1q0 6.5 3.5 6.5 2.1 0 10.4-3.8zm-40.9-8.3l-0.2-45.1q-50.2 13.6-50.2 29.1 0 8 9.9 16.6 9.8 8.3 18.1 8.3 8 0 22.4-8.9zm54.2 98.8q-10.1 0-14.7-2.9-4.2-3.2-6.9-13.1l21.9-19.5q1.3 11.5 10.1 11.5 4.6 0 7.8-5.1l26.9-43.8q-2.4-9-17.9-49.6-6.9-19-22.1-56.1-1.9-4-5.6-4-0.8 0-15.2 3.5l-1.9-5.6 44.8-16q24.9 60.8 37.1 93.1l37.9-63.5q4.3-7.2 4.3-12.8 0-6.7-12.3-5.9l-1.8-5.6q27.2-3.7 28-3.7 8.3 0 8.3 7.5 0 6.1-3.2 11.4l-93.7 156.7q-14.2 23.5-31.8 23.5zm371-109.4l4.3 4q-23.2 34.7-57.6 34.7-23.3 0-36.1-19.5-10.9-16.6-11.5-41.1 0-0.3 0-49.1h-28.5l-1.6-5.6q15.2-5.9 22.9-13.7 8-8 15-23.2l18.9-11.7v36h64.9l1.6 5.1-22.7 13.1h-43.8v23.7q0 9.6 0 13.6 0.6 21.9 9.6 36.6 11.3 17.6 31.5 17.6 12.6 0 33.1-20.5zm137.2-31.3q0 16.6-7.4 30.7-7.8 15-21.7 23l-20.2 11.7q-11.5 6.7-24.6 6.7-23.5 0-39-18.7-14.6-17.9-14.6-41.6 0-16.6 7.4-31 7.8-14.4 21.6-22.4l20.3-11.7q12-7 24.6-7 23.2 0 38.7 19 14.9 17.8 14.9 41.3zm-26.6 11.8q0-21.9-13.4-37.4-14.1-16.5-35.5-16.5v-0.3q-13.9 0.8-20.5 15.5-4.9 10.9-4.9 26.9 0 21.1 12.9 37.1 13.6 16.9 34.4 16.9 14.7 0 21.6-14.7 5.4-11 5.4-27.5zm189.5-87.3q0 20 24.5 31.2 22.7 8.6 45.4 17.4 24.6 11.7 24.6 33.6 0 20.8-13.9 34.2-7 6.6-31.8 21.1-13.1 7.4-28.5 7.4-15.8 0-32.1-9-13.9-9.6-28-19l26.7-14.9q12.5 8.2 25.1 16.8 13.9 8 28.5 8 12.6 0 20.3-10.4 7-9.4 7-22.4 0-16.1-16.3-25.7-8.6-5.3-30.2-11.4-48-13.9-48-45.2 0-14.6 14.4-26.4 5.1-4 26.4-16.3 9.9-5.6 31.5-5.6 16 0 47.8 5.9-9.6 5.9-29.4 16-14.9-5.3-36.3-5.3-9 0-13.3 1-5.1 1.4-9.9 7.5-4.5 6.2-4.5 11.5zm230.9 113.4q-25.1 34.2-67.3 34.2-23.5 0-39-18.7-14.7-17.9-14.7-41.6 0-16.6 7.5-31 7.8-14.4 21.6-22.4l20.3-11.7q12-7 24.6-7 19.7 0 34.4 14.4 2.1 2.2 2.1 2.2 1.7 0 4.1-2.2l2.4 6.4-88.9 52.1q3.4 17.3 16 29.3 12.8 12.1 29.9 12.1 22.7 0 41.1-18.2l2.7 1.3q0.2 0.6 3.2 0.8zm-94-32l58.7-33.6q-13.1-14.4-32-14.4-14.2 0-21.4 14.9-5.6 11.5-5.6 27.2 0 3.8 0.3 5.9zm231.7 32q-25.1 34.2-67.3 34.2-23.5 0-38.9-18.7-14.7-17.9-14.7-41.6 0-16.6 7.5-31 7.7-14.4 21.6-22.4l20.3-11.7q12-7 24.5-7 19.8 0 34.4 14.4 2.2 2.2 2.2 2.2 1.6 0 4-2.2l2.4 6.4-88.9 52.1q3.5 17.3 16 29.3 12.8 12.1 29.9 12.1 22.7 0 41.1-18.2l2.7 1.3q0.3 0.6 3.2 0.8zm-94-32l58.8-33.6q-13.1-14.4-32.1-14.4-14.1 0-21.3 14.9-5.6 11.5-5.6 27.2 0 3.8 0.2 5.9zm268.8 35.2v-132.4q-44.5-0.2-44.5-0.2 0 0-12.9 4.3l-1.6-5.1 20.6-15.2h110.8q0 0 12-3l1.6 5.4-22.7 13.8h-36.6v132.4q0 11.5 4.3 14.7 3.5 2.7 14.9 2.7l3 8h-71l2.9-8q11.5 0 15.2-2.9 4-3 4-14.5zm196.8 0v-38.9q0-41.7-35.8-41.7-9.4 0-19.8 4.3v76.3q0 11.5 4.3 14.7 3.5 2.7 15 2.7l2.9 8h-71l2.9-8q11.5 0 15.2-2.9 4-3 4-14.5v-136.4q0-15.2 0.3-11.2-0.5-7.7-4-7.7-0.5 0-12.3 2.4l-2.6-5.3 45.3-16.3v89.7q24.3-13.9 40.1-13.9 42.1 0 42.1 48v50.7q0 11.5 4.3 14.7 3.5 2.7 15 2.7l2.9 8h-71l2.9-8q11.5 0 15.3-2.9 4-3 4-14.5zm178.8-3.2q-25.1 34.2-67.3 34.2-23.5 0-38.9-18.7-14.7-17.9-14.7-41.6 0-16.6 7.5-31 7.7-14.4 21.6-22.4l20.3-11.7q12-7 24.5-7 19.8 0 34.4 14.4 2.2 2.2 2.2 2.2 1.6 0 4-2.2l2.4 6.4-88.9 52.1q3.5 17.3 16 29.3 12.8 12.1 29.9 12.1 22.7 0 41.1-18.2l2.7 1.3q0.3 0.6 3.2 0.8zm-94-32l58.8-33.6q-13.1-14.4-32.1-14.4-14.1 0-21.3 14.9-5.6 11.5-5.6 27.2 0 3.8 0.2 5.9zm406.6 43.2q17.6-15.4 27.2-39.7 9.1-23 9.1-47.8 0-36.6-18.7-59.5l26.1-15q19 23.2 19 61.4 0 28.3-10.7 54.7-11.7 28.6-32 45.4-17.4 14.4-45.7 22.4-0.2-10.6-19.4-64.8-21.9 47.5-75.3 65.1-0.3-7.7-22.4-73.9-21.1-62.8-28.1-79.3-6.9-16.8-17.9-17.1l-2.9-8h71l-2.9 8q-19.8-0.3-19.8 9.6 0 2.7 22.2 64.1 24 66.2 26.4 74.4 34.4-30.4 35.8-83.5l-16.6-47.2q-5.8-17.1-18.1-17.4l-3-8h71l-2.9 8q-19.7-0.3-19.7 9.6 0 2.7 22.1 64.1 23.8 66.4 26.2 74.4zm203.4-49.1q0 16.6-7.5 30.7-7.8 15-21.6 23l-20.3 11.7q-11.5 6.7-24.6 6.7-23.5 0-38.9-18.7-14.7-17.9-14.7-41.6 0-16.6 7.4-31 7.8-14.4 21.7-22.4l20.3-11.7q12-7 24.5-7 23.2 0 38.7 19 15 17.8 15 41.3zm-26.7 11.8q0-21.9-13.4-37.4-14.1-16.5-35.5-16.5v-0.3q-13.9 0.8-20.5 15.5-4.8 10.9-4.8 26.9 0 21.1 12.8 37.1 13.6 16.9 34.4 16.9 14.7 0 21.6-14.7 5.4-11 5.4-27.5zm88.3-48.9l-0.2 78.2q0 11.5 4.2 14.7 3.5 2.7 15 2.7l2.9 8h-71l2.9-8q11.5 0 15.3-2.9 4-3 4-14.5v-69.1q0-9.9 0.2-8.3-0.5-5-4-5-0.2 0-12.3 2.4l-2.6-5.4 45.4-16.3v16.9q22.9-13.4 25.8-13.4 2.7 0 7.8 2.9 5.3 3 9.3 3 6.2 0 15.2-5.4l3.2 5.1q-8 6.2-16 12-12.8 8.8-18.7 8.8-4 0-9.8-4.2-5.6-4.3-9.1-4.3-3.5 0-7.5 2.4zm83.8-77.1q-0.5 0-12.2 2.4l-2.7-5.4 45.4-16.3v174.6q0 11.5 4.2 14.7 3.5 2.7 15 2.7l2.9 8h-71l3-8q11.4 0 15.2-3 4-2.9 4-14.4v-137.7q0-13.9 0.2-10.4-0.5-7.2-4-7.2zm161.3 160.4v-64.3q-16.9-21.9-40.9-21.9-26.9 0-26.9 42.1 0 21.1 12.8 36.9 13.6 17.1 34.1 17.1 9.6 0 20.9-9.9zm0-99.8v-56.6q0-4-3.8-4-0.5 0-12.3 2.4l-2.6-5.4 45.4-16.3v182.6q0 4.3 4.5 4.3 2.7 0 9.6-3.2l2.9 5.6-43.7 15.5v-12.3q-21.7 15.2-40.9 15.2-23.5 0-39-18.7-14.6-17.9-14.6-41.6 0-16.6 7.4-31 7.8-14.4 21.7-22.4l20.2-11.7q12.1-7 24.6-7 10.2 0 20.6 4.6z"/></svg>